<svg width="569" height="214" viewBox="0 0 569 214" fill="none" xmlns="http://www.w3.org/2000/svg">
<path d="M39.2912 150.83C54.5894 150.135 66.4976 147.179 75.0159 141.964C83.5342 136.575 91.2702 127.97 98.2239 116.149L97.9632 161H25.9922C14.6924 161 6.17413 161.261 0.437311 161.782L60.9346 40.2661C46.3318 40.7876 35.032 43.4822 27.0353 48.3498C19.2123 53.0436 12.2586 61.8226 6.17413 74.687L6.69566 29.8355H76.3197C87.4457 29.8355 94.6602 29.6617 97.9632 29.314L101.092 29.0532L39.2912 150.83ZM210.976 76.5124V95.5481H142.395C143.612 108.76 147.35 118.843 153.608 125.797C159.866 132.577 169.601 135.967 182.813 135.967C192.549 135.967 201.675 133.359 210.194 128.144C208.629 137.705 204.022 146.136 196.373 153.438C188.724 160.739 178.38 164.39 165.342 164.39C149.001 164.39 135.702 158.219 125.445 145.876C115.189 133.359 110.06 117.018 110.06 96.852C110.06 76.86 114.928 60.258 124.663 47.046C134.398 33.8339 148.219 27.2279 166.125 27.2279C180.901 27.2279 192.027 31.9216 199.502 41.3092C207.151 50.5228 210.976 62.2572 210.976 76.5124ZM168.732 87.7252C172.904 87.7252 175.512 87.1168 176.555 85.8999C177.598 84.683 178.12 81.6407 178.12 76.7731C178.12 51.3921 172.47 38.7015 161.17 38.7015C148.306 38.7015 141.873 53.1305 141.873 81.9884V87.7252H168.732ZM326.334 76.5124V95.5481H257.753C258.97 108.76 262.707 118.843 268.966 125.797C275.224 132.577 284.959 135.967 298.171 135.967C307.906 135.967 317.033 133.359 325.551 128.144C323.987 137.705 319.38 146.136 311.731 153.438C304.082 160.739 293.738 164.39 280.7 164.39C264.359 164.39 251.06 158.219 240.803 145.876C230.546 133.359 225.418 117.018 225.418 96.852C225.418 76.86 230.285 60.258 240.021 47.046C249.756 33.8339 263.576 27.2279 281.482 27.2279C296.259 27.2279 307.385 31.9216 314.86 41.3092C322.509 50.5228 326.334 62.2572 326.334 76.5124ZM284.09 87.7252C288.262 87.7252 290.87 87.1168 291.913 85.8999C292.956 84.683 293.477 81.6407 293.477 76.7731C293.477 51.3921 287.827 38.7015 276.528 38.7015C263.663 38.7015 257.231 53.1305 257.231 81.9884V87.7252H284.09ZM449.253 0.890687C452.73 0.890687 455.86 1.58606 458.641 2.97681L453.426 41.3092C449.253 32.7909 443.691 28.5317 436.737 28.5317C431.174 28.5317 427.089 31.574 424.481 37.6585C436.302 46.1768 442.213 57.8242 442.213 72.6009C442.213 86.3345 437.258 97.895 427.349 107.283C417.44 116.67 405.01 121.364 390.06 121.364C384.845 121.364 379.629 120.668 374.414 119.278C368.851 123.45 366.07 127.448 366.07 131.273C366.07 133.185 366.852 134.576 368.417 135.445C370.155 136.314 371.806 136.836 373.371 137.01C375.109 137.184 377.63 137.27 380.933 137.27H408.053C412.573 137.27 416.136 137.357 418.744 137.531C421.526 137.705 424.915 138.227 428.914 139.096C432.912 139.965 435.955 141.269 438.041 143.007C440.301 144.572 442.3 147.093 444.038 150.569C445.777 153.872 446.646 157.871 446.646 162.565C446.646 176.472 440.735 188.467 428.914 198.55C417.093 208.807 401.621 213.935 382.498 213.935C364.418 213.935 348.425 209.589 334.517 200.897L351.467 172.213C366.244 187.163 383.367 194.639 402.837 194.639C411.182 194.639 417.44 193.161 421.612 190.206C425.785 187.424 427.871 183.773 427.871 179.254C427.871 174.56 425.959 171.257 422.134 169.344C418.483 167.606 412.746 166.737 404.924 166.737H376.5C353.379 166.737 341.819 160.652 341.819 148.483C341.819 137.705 349.555 126.753 365.027 115.627C357.725 111.802 351.901 106.5 347.555 99.7204C343.209 92.9405 341.036 85.2045 341.036 76.5124C341.036 62.7788 345.991 51.2182 355.9 41.8307C365.809 32.4432 378.152 27.7494 392.928 27.7494C402.316 27.7494 410.834 29.7486 418.483 33.747C421.786 21.4041 425.959 12.8858 431 8.19209C436.041 3.32449 442.126 0.890687 449.253 0.890687ZM393.711 110.151C404.141 110.151 409.357 100.503 409.357 81.2061C409.357 69.9063 407.705 59.9973 404.402 51.479C401.099 42.9607 396.058 38.7015 389.278 38.7015C379.195 38.7015 374.153 48.3498 374.153 67.6464C374.153 74.9478 374.675 81.6407 375.718 87.7252C376.761 93.6359 378.847 98.8512 381.976 103.371C385.105 107.891 389.017 110.151 393.711 110.151ZM512.149 164.129C496.329 164.129 483.378 157.871 473.295 145.354C463.386 132.837 458.431 116.409 458.431 96.0697C458.431 75.0347 463.56 58.2588 473.816 45.7422C484.073 33.2255 497.633 26.9671 514.496 26.9671C530.141 26.9671 543.006 33.2255 553.089 45.7422C563.172 58.2588 568.213 74.7739 568.213 95.2874C568.213 116.322 563.085 133.098 552.828 145.615C542.571 157.958 529.011 164.129 512.149 164.129ZM515.799 152.395C527.621 152.395 533.531 137.01 533.531 106.239C533.531 87.6383 531.532 71.7317 527.534 58.5196C523.709 45.3076 518.146 38.7015 510.845 38.7015C499.024 38.7015 493.113 54.1735 493.113 85.1176C493.113 103.719 495.025 119.625 498.85 132.837C502.848 145.876 508.498 152.395 515.799 152.395Z" fill="url(#paint0_linear_206_17)"/>
<path d="M39.2912 150.83C54.5894 150.135 66.4976 147.179 75.0159 141.964C83.5342 136.575 91.2702 127.97 98.2239 116.149L97.9632 161H25.9922C14.6924 161 6.17413 161.261 0.437311 161.782L60.9346 40.2661C46.3318 40.7876 35.032 43.4822 27.0353 48.3498C19.2123 53.0436 12.2586 61.8226 6.17413 74.687L6.69566 29.8355H76.3197C87.4457 29.8355 94.6602 29.6617 97.9632 29.314L101.092 29.0532L39.2912 150.83ZM210.976 76.5124V95.5481H142.395C143.612 108.76 147.35 118.843 153.608 125.797C159.866 132.577 169.601 135.967 182.813 135.967C192.549 135.967 201.675 133.359 210.194 128.144C208.629 137.705 204.022 146.136 196.373 153.438C188.724 160.739 178.38 164.39 165.342 164.39C149.001 164.39 135.702 158.219 125.445 145.876C115.189 133.359 110.06 117.018 110.06 96.852C110.06 76.86 114.928 60.258 124.663 47.046C134.398 33.8339 148.219 27.2279 166.125 27.2279C180.901 27.2279 192.027 31.9216 199.502 41.3092C207.151 50.5228 210.976 62.2572 210.976 76.5124ZM168.732 87.7252C172.904 87.7252 175.512 87.1168 176.555 85.8999C177.598 84.683 178.12 81.6407 178.12 76.7731C178.12 51.3921 172.47 38.7015 161.17 38.7015C148.306 38.7015 141.873 53.1305 141.873 81.9884V87.7252H168.732ZM326.334 76.5124V95.5481H257.753C258.97 108.76 262.707 118.843 268.966 125.797C275.224 132.577 284.959 135.967 298.171 135.967C307.906 135.967 317.033 133.359 325.551 128.144C323.987 137.705 319.38 146.136 311.731 153.438C304.082 160.739 293.738 164.39 280.7 164.39C264.359 164.39 251.06 158.219 240.803 145.876C230.546 133.359 225.418 117.018 225.418 96.852C225.418 76.86 230.285 60.258 240.021 47.046C249.756 33.8339 263.576 27.2279 281.482 27.2279C296.259 27.2279 307.385 31.9216 314.86 41.3092C322.509 50.5228 326.334 62.2572 326.334 76.5124ZM284.09 87.7252C288.262 87.7252 290.87 87.1168 291.913 85.8999C292.956 84.683 293.477 81.6407 293.477 76.7731C293.477 51.3921 287.827 38.7015 276.528 38.7015C263.663 38.7015 257.231 53.1305 257.231 81.9884V87.7252H284.09ZM449.253 0.890687C452.73 0.890687 455.86 1.58606 458.641 2.97681L453.426 41.3092C449.253 32.7909 443.691 28.5317 436.737 28.5317C431.174 28.5317 427.089 31.574 424.481 37.6585C436.302 46.1768 442.213 57.8242 442.213 72.6009C442.213 86.3345 437.258 97.895 427.349 107.283C417.44 116.67 405.01 121.364 390.06 121.364C384.845 121.364 379.629 120.668 374.414 119.278C368.851 123.45 366.07 127.448 366.07 131.273C366.07 133.185 366.852 134.576 368.417 135.445C370.155 136.314 371.806 136.836 373.371 137.01C375.109 137.184 377.63 137.27 380.933 137.27H408.053C412.573 137.27 416.136 137.357 418.744 137.531C421.526 137.705 424.915 138.227 428.914 139.096C432.912 139.965 435.955 141.269 438.041 143.007C440.301 144.572 442.3 147.093 444.038 150.569C445.777 153.872 446.646 157.871 446.646 162.565C446.646 176.472 440.735 188.467 428.914 198.55C417.093 208.807 401.621 213.935 382.498 213.935C364.418 213.935 348.425 209.589 334.517 200.897L351.467 172.213C366.244 187.163 383.367 194.639 402.837 194.639C411.182 194.639 417.44 193.161 421.612 190.206C425.785 187.424 427.871 183.773 427.871 179.254C427.871 174.56 425.959 171.257 422.134 169.344C418.483 167.606 412.746 166.737 404.924 166.737H376.5C353.379 166.737 341.819 160.652 341.819 148.483C341.819 137.705 349.555 126.753 365.027 115.627C357.725 111.802 351.901 106.5 347.555 99.7204C343.209 92.9405 341.036 85.2045 341.036 76.5124C341.036 62.7788 345.991 51.2182 355.9 41.8307C365.809 32.4432 378.152 27.7494 392.928 27.7494C402.316 27.7494 410.834 29.7486 418.483 33.747C421.786 21.4041 425.959 12.8858 431 8.19209C436.041 3.32449 442.126 0.890687 449.253 0.890687ZM393.711 110.151C404.141 110.151 409.357 100.503 409.357 81.2061C409.357 69.9063 407.705 59.9973 404.402 51.479C401.099 42.9607 396.058 38.7015 389.278 38.7015C379.195 38.7015 374.153 48.3498 374.153 67.6464C374.153 74.9478 374.675 81.6407 375.718 87.7252C376.761 93.6359 378.847 98.8512 381.976 103.371C385.105 107.891 389.017 110.151 393.711 110.151ZM512.149 164.129C496.329 164.129 483.378 157.871 473.295 145.354C463.386 132.837 458.431 116.409 458.431 96.0697C458.431 75.0347 463.56 58.2588 473.816 45.7422C484.073 33.2255 497.633 26.9671 514.496 26.9671C530.141 26.9671 543.006 33.2255 553.089 45.7422C563.172 58.2588 568.213 74.7739 568.213 95.2874C568.213 116.322 563.085 133.098 552.828 145.615C542.571 157.958 529.011 164.129 512.149 164.129ZM515.799 152.395C527.621 152.395 533.531 137.01 533.531 106.239C533.531 87.6383 531.532 71.7317 527.534 58.5196C523.709 45.3076 518.146 38.7015 510.845 38.7015C499.024 38.7015 493.113 54.1735 493.113 85.1176C493.113 103.719 495.025 119.625 498.85 132.837C502.848 145.876 508.498 152.395 515.799 152.395Z" fill="white"/>
<defs>
<linearGradient id="paint0_linear_206_17" x1="614" y1="89" x2="-46.5" y2="89.0001" gradientUnits="userSpaceOnUse">
<stop stop-color="white"/>
<stop offset="1" stop-color="white" stop-opacity="0.6"/>
</linearGradient>
</defs>
</svg>
